<?xml version="1.0" standalone="no"?>
<!DOCTYPE svg PUBLIC "-//W3C//DTD SVG 20010904//EN"
 "http://www.w3.org/TR/2001/REC-SVG-20010904/DTD/svg10.dtd">
<svg version="1.0" xmlns="http://www.w3.org/2000/svg"
 width="297.000000pt" height="170.000000pt" viewBox="0 0 297.000000 170.000000"
 preserveAspectRatio="xMidYMid meet">

<g transform="translate(0.000000,170.000000) scale(0.100000,-0.100000)"
fill="#000000" stroke="none">
<path d="M0 850 l0 -850 1485 0 1485 0 0 850 0 850 -1485 0 -1485 0 0 -850z
m1611 108 l-71 -101 46 -64 c25 -34 40 -63 35 -63 -6 0 -27 25 -48 55 -21 30
-40 54 -43 54 -3 0 -23 -24 -44 -54 -22 -30 -44 -55 -49 -55 -10 0 -4 9 50 83
l32 44 -41 57 c-22 31 -38 59 -35 62 3 3 23 -20 45 -51 l40 -56 72 96 c39 52
74 95 76 95 3 0 -26 -46 -65 -102z m-428 -156 c65 -97 107 -163 92 -147 -14
17 -67 90 -118 164 l-92 134 -6 -114 -5 -114 -2 128 c-1 70 1 127 6 127 4 -1
60 -81 125 -178z m237 168 c0 -6 -32 -10 -75 -10 l-75 0 0 -45 0 -45 70 0 c40
0 70 -4 70 -10 0 -6 -30 -10 -70 -10 l-70 0 0 -55 0 -54 78 -4 77 -3 -87 -2
-88 -2 0 125 0 125 85 0 c50 0 85 -4 85 -10z m410 0 c0 -5 -20 -10 -45 -10
l-45 0 0 -115 c0 -70 -4 -115 -10 -115 -6 0 -10 45 -10 115 l0 115 -40 0 c-22
0 -40 5 -40 10 0 6 38 10 95 10 57 0 95 -4 95 -10z m40 -195 c0 -17 -5 -25
-17 -24 -11 0 -13 3 -5 6 6 2 12 13 12 24 0 10 2 19 5 19 3 0 5 -11 5 -25z
m35 15 c-17 -7 -17 -9 -2 -9 9 -1 17 -8 17 -16 0 -12 -3 -12 -19 2 -22 18 -19
33 7 32 14 0 13 -2 -3 -9z"/>
</g>
</svg>
